# xmcd CD database file
#
# Track frame offsets:
#	150
#	10848
#	24445
#	35463
#	45229
#	57186
#	67311
#	86689
#	99062
#	107975
#	118711
#	130307
#	142671
#	160281
#	171364
#	181337
#	194633
#	206293
#	219312
#	227834
#	237853
#	248576
#	260265
#	273592
#	283321
#	296361
#	305698
#	317883
#
# Disc length: 4267 seconds
#
# Revision: 0
# Processed by: cddbd v1.5.1PL0 Copyright (c) Steve Scherf et al.
# Submitted via: CDex 1.51
#
DISCID=9410a91c
DTITLE=Various Artist - Shake 'Em On Down
DYEAR=1900
DGENRE=Blues
TTITLE0=It's Cool Baby - Slim Harpo
TTITLE1=Number 9 Train - Tarheal Slim
TTITLE2=Mean 'ol Train - Papa Lightfoot
TTITLE3=That ain't your business - Slim Harpo
TTITLE4=I'm the wolfman - Round Robin
TTITLE5=Do the Do - Howling Wolf
TTITLE6=Shake it baby - John Lee Hooker
TTITLE7=Country Boy Blues - Pee Wee Hughes
TTITLE8=I wanna love you - Eddie Taylor
TTITLE9=Rock Island Line - Sonny Terry and Brownie Mc. Ghee
TTITLE10=Ride and Roll - Sonny Terry and Brownie Mc. Ghee
TTITLE11=You don't love me - Jay Swan
TTITLE12=Ma negresse - Rockin' Dopsie
TTITLE13=I wanna ramble - Johnny Lee Hooker
TTITLE14=Red riding hood and the Wolf - Bunker Hill
TTITLE15=Shake 'em on down - Jim Dickerson
TTITLE16=I need love - Muddy Waters
TTITLE17=Who may your lover be - Bo Didley
TTITLE18=Cat walk - Tina Fuller
TTITLE19=Mear me talkin' - Lightnin Hopkins
TTITLE20=You be mine - Howling Wolf
TTITLE21=You don't love me - Bo Didley
TTITLE22=New York breakdown - Dr. Ross
TTITLE23=Yes Baby - George Smith
TTITLE24=Rockin' and Whoopin' Sonny Terry and Brownie Mc. Ghee
TTITLE25=Give me a break (man) - Bo Didley
TTITLE26=Diggin' my potatoes - Washboard Sam
TTITLE27=Last Track
EXTD=
EXTT0=
EXTT1=
EXTT2=
EXTT3=
EXTT4=
EXTT5=
EXTT6=
EXTT7=
EXTT8=
EXTT9=
EXTT10=
EXTT11=
EXTT12=
EXTT13=
EXTT14=
EXTT15=
EXTT16=
EXTT17=
EXTT18=
EXTT19=
EXTT20=
EXTT21=
EXTT22=
EXTT23=
EXTT24=
EXTT25=
EXTT26=
EXTT27=
PLAYORDER=
